<?xml version="1.0" encoding="UTF-8" standalone="no"?><!DOCTYPE svg PUBLIC "-//W3C//DTD SVG 1.1//EN" "http://www.w3.org/Graphics/SVG/1.1/DTD/svg11.dtd"><svg width="100%" height="100%" viewBox="0 0 2560 1440" version="1.1" xmlns="http://www.w3.org/2000/svg" xmlns:xlink="http://www.w3.org/1999/xlink" xml:space="preserve" xmlns:serif="http://www.serif.com/" style="fill-rule:evenodd;clip-rule:evenodd;stroke-linejoin:round;stroke-miterlimit:1.41421;"><g><g id="Logo-Flat-Shadow" serif:id="Logo Flat Shadow"><path id="Logo-Shadow" serif:id="Logo Shadow" d="M489.881,391.296l0,-133.533l759.622,0l158.244,158.243l2.1,-104.485l50.448,-52.399l233.429,-2.632l413.632,421.726l52.698,-64.771l2470.07,2470.08l-1750.57,147.434l-2075.34,-2075.35l-0.005,-449.991l-314.325,-314.324l-0.002,0.001Z" style="fill-opacity:0.494118;"/><path id="Logo" d="M804.213,775.776c0,-351.651 -0.177,-380.002 -2.064,-382.155c-1.978,-2.232 -8.488,-2.325 -157.163,-2.325l-155.1,0l0,-66.767l0,-66.766l759.623,0l0,43.361c0,48.152 -0.494,52.081 -8.111,64.101c-7.953,12.552 -16.344,19.218 -30.402,24.156c-4.729,1.661 -23.234,1.915 -138.715,1.915l-133.26,0l-2.539,2.784l-2.543,2.784l0,758.748l-64.86,0l-64.862,0l-0.004,-379.836Zm181.201,155.69c0.398,-220.905 0.443,-224.265 2.918,-232.474c3.301,-10.881 9.665,-24.088 16.202,-33.619c13.4,-19.539 38.65,-37.668 61.618,-44.236c3.774,-1.081 9.103,-2.701 11.848,-3.595c3.762,-1.232 23.347,-1.751 79.518,-2.101l74.527,-0.47l-0.013,46.174c-0.015,47.579 -0.399,51.875 -5.394,61.622c-3.626,7.058 -11.084,14.469 -19.315,19.192l-8.333,4.783l-40.327,0.636c-38.093,0.6 -40.427,0.775 -42.097,3.104c-1.509,2.104 -1.77,32.047 -1.77,203.798l0,201.326l-64.888,0l-64.888,0l0.394,-224.14Zm159.624,183.824c0.562,-43.755 0.448,-42.953 8.398,-59.177c5.427,-11.079 20.22,-24.094 33.344,-29.335c9.82,-3.921 30.797,-4.698 126.567,-4.702c84.149,0 94.608,-0.224 96.356,-2c1.759,-1.789 1.956,-15.811 1.956,-135.283c0,-122.349 -0.175,-133.43 -2.059,-135.03c-1.626,-1.382 -11.392,-1.884 -46.462,-2.404c-40.28,-0.595 -44.925,-0.884 -50.017,-3.118c-17.033,-7.467 -30.451,-19.706 -37.315,-34.034c-6.271,-13.09 -7.588,-23.915 -7.588,-62.341l0,-34.02l80.14,0.044c81.632,0.045 109.1,0.948 117.717,3.821c24.569,8.192 36.828,15.232 49.738,28.576c5.574,5.763 13.095,15.18 13.095,16.402c0,0.451 1.295,2.929 2.877,5.539c3.651,6.018 6.463,13.853 8.914,24.852c1.698,7.619 1.931,32.53 1.931,206.662c0,191.871 -0.089,198.265 -2.41,206.589c-6.499,23.172 -23.304,40.092 -46.234,46.549c-5.946,1.67 -29.727,1.993 -178.164,2.384l-171.3,0.45l0.516,-40.435l0,0.011Zm628.348,37.287c-18.418,-4.785 -36.94,-20.34 -44.092,-37.029c-1.198,-2.797 -2.854,-6.231 -3.677,-7.629c-1.138,-1.937 -1.578,-40.881 -1.833,-163.101l-0.353,-160.555l129.742,0l0.308,117.102c0.312,114.987 0.353,117.135 2.794,118.939c2.049,1.527 9.627,1.803 44.906,1.633c46.295,-0.227 47.309,-0.091 62.473,7.795c7.844,4.082 22.813,19.287 26.291,26.703c5.916,12.615 6.042,13.729 6.436,56.735l0.352,41.167l-108.893,-0.137c-77.322,-0.089 -110.519,-0.573 -114.504,-1.609l0.05,-0.014Zm257.247,-242.985c0.264,-193.744 0.654,-245.077 1.888,-246.336c0.855,-0.874 1.559,-2.306 1.559,-3.182c0,-2.028 7.147,-14.107 11.225,-18.977c4.026,-4.807 14.541,-13.616 19.334,-16.195c16.323,-8.786 22.058,-9.793 60.809,-10.672l34.612,-0.785l0,201.772c0,233.61 -1.904,206.859 14.718,206.859c5.905,0 10.317,0.6 11.226,1.529c1.128,1.147 1.501,17.578 1.501,66.13l0,64.604l-78.598,0l-78.598,0l0.324,-244.747Zm-391.957,-163.514c-23.675,-5.091 -45.611,-22.257 -54.927,-42.984c-1.473,-3.27 -3.187,-7.091 -3.815,-8.489c-3.134,-6.993 -4.826,-25.319 -4.849,-52.461l-0.025,-28.296l366.672,0l0.707,132.263l-132.333,-0.002c-72.782,0 -139.857,0.272 -149.054,0.591c-9.197,0.315 -19.251,0.045 -22.338,-0.617l-0.038,-0.005Zm-177.12,-160.178c-15.346,-2.906 -25.816,-7.946 -35.968,-17.308c-8.283,-7.644 -13.107,-16.231 -15.821,-28.175c-2.75,-12.091 -2.687,-213.806 0.086,-228.896c4.771,-26.094 22.525,-44.534 50.448,-52.399c9.111,-2.571 11.959,-2.629 121.392,-2.629l112.064,0l-0.397,49.279l-0.397,49.28l-3.574,7.343c-4.633,9.519 -13.349,18.789 -21.962,23.357l-6.862,3.637l-58.746,0.634c-47.26,0.513 -59.151,0.978 -60.807,2.384c-1.869,1.58 -2.061,8.1 -2.061,70.184c0,73.452 -0.353,78.612 -6.575,91.487c-6.007,12.471 -20.231,23.711 -37.195,29.388c-8.167,2.738 -25.395,3.984 -33.564,2.44l-0.061,-0.006Zm261.624,-49.943c0.175,-21.86 0.45,-80.66 0.625,-130.674c0.312,-84.186 0.488,-91.304 2.552,-96.014c9.803,-22.349 20.023,-34.339 36.178,-42.442c16.214,-8.134 29.663,-10.337 63.12,-10.337l27.56,0l0,319.207l-65.175,0l-65.171,0.003l0.311,-39.743Z" style="fill:#fff;fill-rule:nonzero;"/><path d="M804.213,775.776c0,-351.651 -0.177,-380.002 -2.064,-382.155c-1.978,-2.232 -8.488,-2.325 -157.163,-2.325l-155.1,0l0,-66.767l0,-66.766l759.623,0l0,43.361c0,48.152 -0.494,52.081 -8.111,64.101c-7.953,12.552 -16.344,19.218 -30.402,24.156c-4.729,1.661 -23.234,1.915 -138.715,1.915l-133.26,0l-2.539,2.784l-2.543,2.784l0,758.748l-64.86,0l-64.862,0l-0.004,-379.836Zm181.201,155.69c0.398,-220.905 0.443,-224.265 2.918,-232.474c3.301,-10.881 9.665,-24.088 16.202,-33.619c13.4,-19.539 38.65,-37.668 61.618,-44.236c3.774,-1.081 9.103,-2.701 11.848,-3.595c3.762,-1.232 23.347,-1.751 79.518,-2.101l74.527,-0.47l-0.013,46.174c-0.015,47.579 -0.399,51.875 -5.394,61.622c-3.626,7.058 -11.084,14.469 -19.315,19.192l-8.333,4.783l-40.327,0.636c-38.093,0.6 -40.427,0.775 -42.097,3.104c-1.509,2.104 -1.77,32.047 -1.77,203.798l0,201.326l-64.888,0l-64.888,0l0.394,-224.14Zm159.624,183.824c0.562,-43.755 0.448,-42.953 8.398,-59.177c5.427,-11.079 20.22,-24.094 33.344,-29.335c9.82,-3.921 30.797,-4.698 126.567,-4.702c84.149,0 94.608,-0.224 96.356,-2c1.759,-1.789 1.956,-15.811 1.956,-135.283c0,-122.349 -0.175,-133.43 -2.059,-135.03c-1.626,-1.382 -11.392,-1.884 -46.462,-2.404c-40.28,-0.595 -44.925,-0.884 -50.017,-3.118c-17.033,-7.467 -30.451,-19.706 -37.315,-34.034c-6.271,-13.09 -7.588,-23.915 -7.588,-62.341l0,-34.02l80.14,0.044c81.632,0.045 109.1,0.948 117.717,3.821c24.569,8.192 36.828,15.232 49.738,28.576c5.574,5.763 13.095,15.18 13.095,16.402c0,0.451 1.295,2.929 2.877,5.539c3.651,6.018 6.463,13.853 8.914,24.852c1.698,7.619 1.931,32.53 1.931,206.662c0,191.871 -0.089,198.265 -2.41,206.589c-6.499,23.172 -23.304,40.092 -46.234,46.549c-5.946,1.67 -29.727,1.993 -178.164,2.384l-171.3,0.45l0.516,-40.435l0,0.011Zm628.348,37.287c-18.418,-4.785 -36.94,-20.34 -44.092,-37.029c-1.198,-2.797 -2.854,-6.231 -3.677,-7.629c-1.138,-1.937 -1.578,-40.881 -1.833,-163.101l-0.353,-160.555l129.742,0l0.308,117.102c0.312,114.987 0.353,117.135 2.794,118.939c2.049,1.527 9.627,1.803 44.906,1.633c46.295,-0.227 47.309,-0.091 62.473,7.795c7.844,4.082 22.813,19.287 26.291,26.703c5.916,12.615 6.042,13.729 6.436,56.735l0.352,41.167l-108.893,-0.137c-77.322,-0.089 -110.519,-0.573 -114.504,-1.609l0.05,-0.014Zm257.247,-242.985c0.264,-193.744 0.654,-245.077 1.888,-246.336c0.855,-0.874 1.559,-2.306 1.559,-3.182c0,-2.028 7.147,-14.107 11.225,-18.977c4.026,-4.807 14.541,-13.616 19.334,-16.195c16.323,-8.786 22.058,-9.793 60.809,-10.672l34.612,-0.785l0,201.772c0,233.61 -1.904,206.859 14.718,206.859c5.905,0 10.317,0.6 11.226,1.529c1.128,1.147 1.501,17.578 1.501,66.13l0,64.604l-78.598,0l-78.598,0l0.324,-244.747Zm-391.957,-163.514c-23.675,-5.091 -45.611,-22.257 -54.927,-42.984c-1.473,-3.27 -3.187,-7.091 -3.815,-8.489c-3.134,-6.993 -4.826,-25.319 -4.849,-52.461l-0.025,-28.296l366.672,0l0.707,132.263l-132.333,-0.002c-72.782,0 -139.857,0.272 -149.054,0.591c-9.197,0.315 -19.251,0.045 -22.338,-0.617l-0.038,-0.005Zm-177.12,-160.178c-15.346,-2.906 -25.816,-7.946 -35.968,-17.308c-8.283,-7.644 -13.107,-16.231 -15.821,-28.175c-2.75,-12.091 -2.687,-213.806 0.086,-228.896c4.771,-26.094 22.525,-44.534 50.448,-52.399c9.111,-2.571 11.959,-2.629 121.392,-2.629l112.064,0l-0.397,49.279l-0.397,49.28l-3.574,7.343c-4.633,9.519 -13.349,18.789 -21.962,23.357l-6.862,3.637l-58.746,0.634c-47.26,0.513 -59.151,0.978 -60.807,2.384c-1.869,1.58 -2.061,8.1 -2.061,70.184c0,73.452 -0.353,78.612 -6.575,91.487c-6.007,12.471 -20.231,23.711 -37.195,29.388c-8.167,2.738 -25.395,3.984 -33.564,2.44l-0.061,-0.006Zm261.624,-49.943c0.175,-21.86 0.45,-80.66 0.625,-130.674c0.312,-84.186 0.488,-91.304 2.552,-96.014c9.803,-22.349 20.023,-34.339 36.178,-42.442c16.214,-8.134 29.663,-10.337 63.12,-10.337l27.56,0l0,319.207l-65.175,0l-65.171,0.003l0.311,-39.743Z" style="fill:#fff;fill-rule:nonzero;"/><path id="Logo1" serif:id="Logo" d="M804.213,775.776c0,-351.651 -0.177,-380.002 -2.064,-382.155c-1.978,-2.232 -8.488,-2.325 -157.163,-2.325l-155.1,0l0,-66.767l0,-66.766l759.623,0l0,43.361c0,48.152 -0.494,52.081 -8.111,64.101c-7.953,12.552 -16.344,19.218 -30.402,24.156c-4.729,1.661 -23.234,1.915 -138.715,1.915l-133.26,0l-2.539,2.784l-2.543,2.784l0,758.748l-64.86,0l-64.862,0l-0.004,-379.836Zm181.201,155.69c0.398,-220.905 0.443,-224.265 2.918,-232.474c3.301,-10.881 9.665,-24.088 16.202,-33.619c13.4,-19.539 38.65,-37.668 61.618,-44.236c3.774,-1.081 9.103,-2.701 11.848,-3.595c3.762,-1.232 23.347,-1.751 79.518,-2.101l74.527,-0.47l-0.013,46.174c-0.015,47.579 -0.399,51.875 -5.394,61.622c-3.626,7.058 -11.084,14.469 -19.315,19.192l-8.333,4.783l-40.327,0.636c-38.093,0.6 -40.427,0.775 -42.097,3.104c-1.509,2.104 -1.77,32.047 -1.77,203.798l0,201.326l-64.888,0l-64.888,0l0.394,-224.14Zm159.624,183.824c0.562,-43.755 0.448,-42.953 8.398,-59.177c5.427,-11.079 20.22,-24.094 33.344,-29.335c9.82,-3.921 30.797,-4.698 126.567,-4.702c84.149,0 94.608,-0.224 96.356,-2c1.759,-1.789 1.956,-15.811 1.956,-135.283c0,-122.349 -0.175,-133.43 -2.059,-135.03c-1.626,-1.382 -11.392,-1.884 -46.462,-2.404c-40.28,-0.595 -44.925,-0.884 -50.017,-3.118c-17.033,-7.467 -30.451,-19.706 -37.315,-34.034c-6.271,-13.09 -7.588,-23.915 -7.588,-62.341l0,-34.02l80.14,0.044c81.632,0.045 109.1,0.948 117.717,3.821c24.569,8.192 36.828,15.232 49.738,28.576c5.574,5.763 13.095,15.18 13.095,16.402c0,0.451 1.295,2.929 2.877,5.539c3.651,6.018 6.463,13.853 8.914,24.852c1.698,7.619 1.931,32.53 1.931,206.662c0,191.871 -0.089,198.265 -2.41,206.589c-6.499,23.172 -23.304,40.092 -46.234,46.549c-5.946,1.67 -29.727,1.993 -178.164,2.384l-171.3,0.45l0.516,-40.435l0,0.011Zm628.348,37.287c-18.418,-4.785 -36.94,-20.34 -44.092,-37.029c-1.198,-2.797 -2.854,-6.231 -3.677,-7.629c-1.138,-1.937 -1.578,-40.881 -1.833,-163.101l-0.353,-160.555l129.742,0l0.308,117.102c0.312,114.987 0.353,117.135 2.794,118.939c2.049,1.527 9.627,1.803 44.906,1.633c46.295,-0.227 47.309,-0.091 62.473,7.795c7.844,4.082 22.813,19.287 26.291,26.703c5.916,12.615 6.042,13.729 6.436,56.735l0.352,41.167l-108.893,-0.137c-77.322,-0.089 -110.519,-0.573 -114.504,-1.609l0.05,-0.014Zm257.247,-242.985c0.264,-193.744 0.654,-245.077 1.888,-246.336c0.855,-0.874 1.559,-2.306 1.559,-3.182c0,-2.028 7.147,-14.107 11.225,-18.977c4.026,-4.807 14.541,-13.616 19.334,-16.195c16.323,-8.786 22.058,-9.793 60.809,-10.672l34.612,-0.785l0,201.772c0,233.61 -1.904,206.859 14.718,206.859c5.905,0 10.317,0.6 11.226,1.529c1.128,1.147 1.501,17.578 1.501,66.13l0,64.604l-78.598,0l-78.598,0l0.324,-244.747Zm-391.957,-163.514c-23.675,-5.091 -45.611,-22.257 -54.927,-42.984c-1.473,-3.27 -3.187,-7.091 -3.815,-8.489c-3.134,-6.993 -4.826,-25.319 -4.849,-52.461l-0.025,-28.296l366.672,0l0.707,132.263l-132.333,-0.002c-72.782,0 -139.857,0.272 -149.054,0.591c-9.197,0.315 -19.251,0.045 -22.338,-0.617l-0.038,-0.005Zm-177.12,-160.178c-15.346,-2.906 -25.816,-7.946 -35.968,-17.308c-8.283,-7.644 -13.107,-16.231 -15.821,-28.175c-2.75,-12.091 -2.687,-213.806 0.086,-228.896c4.771,-26.094 22.525,-44.534 50.448,-52.399c9.111,-2.571 11.959,-2.629 121.392,-2.629l112.064,0l-0.397,49.279l-0.397,49.28l-3.574,7.343c-4.633,9.519 -13.349,18.789 -21.962,23.357l-6.862,3.637l-58.746,0.634c-47.26,0.513 -59.151,0.978 -60.807,2.384c-1.869,1.58 -2.061,8.1 -2.061,70.184c0,73.452 -0.353,78.612 -6.575,91.487c-6.007,12.471 -20.231,23.711 -37.195,29.388c-8.167,2.738 -25.395,3.984 -33.564,2.44l-0.061,-0.006Zm261.624,-49.943c0.175,-21.86 0.45,-80.66 0.625,-130.674c0.312,-84.186 0.488,-91.304 2.552,-96.014c9.803,-22.349 20.023,-34.339 36.178,-42.442c16.214,-8.134 29.663,-10.337 63.12,-10.337l27.56,0l0,319.207l-65.175,0l-65.171,0.003l0.311,-39.743Z" style="fill:#fff;fill-rule:nonzero;"/></g></g></svg>